HIERARCHY
ROOT Hips
{
	OFFSET -0.001795 -0.223333 0.028219
	CHANNELS 6 Xposition Yposition Zposition Zrotation Yrotation Xrotation 
	JOINT LeftUpLeg
	{
		OFFSET 0.069520 -0.091406 -0.006815
		CHANNELS 3 Zrotation Yrotation Xrotation
		JOINT LeftLeg
		{
			OFFSET 0.034277 -0.375199 -0.004496
			CHANNELS 3 Zrotation Yrotation Xrotation
			JOINT LeftFoot
			{
				OFFSET -0.013596 -0.397961 -0.043693
				CHANNELS 3 Zrotation Yrotation Xrotation
				JOINT LeftToe
				{
					OFFSET 0.026358 -0.055791 0.119288
					CHANNELS 3 Zrotation Yrotation Xrotation
					End Site
					{
						OFFSET 0.000000 0.000000 0.000000
					}
				}
			}
		}
	}
	JOINT RightUpLeg
	{
		OFFSET -0.067670 -0.090522 -0.004320
		CHANNELS 3 Zrotation Yrotation Xrotation
		JOINT RightLeg
		{
			OFFSET -0.038290 -0.382569 -0.008850
			CHANNELS 3 Zrotation Yrotation Xrotation
			JOINT RightFoot
			{
				OFFSET 0.015774 -0.398415 -0.042312
				CHANNELS 3 Zrotation Yrotation Xrotation
				JOINT RightToe
				{
					OFFSET -0.025372 -0.048144 0.123348
					CHANNELS 3 Zrotation Yrotation Xrotation
					End Site
					{
						OFFSET 0.000000 0.000000 0.000000
					}
				}
			}
		}
	}
	JOINT Spine
	{
		OFFSET -0.002533 0.108963 -0.026696
		CHANNELS 3 Zrotation Yrotation Xrotation
		JOINT Spine1
		{
			OFFSET 0.005487 0.135180 0.001092
			CHANNELS 3 Zrotation Yrotation Xrotation
			JOINT Spine2
			{
				OFFSET 0.001457 0.052922 0.025425
				CHANNELS 3 Zrotation Yrotation Xrotation
				JOINT Neck
				{
					OFFSET -0.002778 0.213870 -0.042857
					CHANNELS 3 Zrotation Yrotation Xrotation
					JOINT Head
					{
						OFFSET 0.005152 0.064970 0.051349
						CHANNELS 3 Zrotation Yrotation Xrotation
						End Site
						{
							OFFSET 0.000000 0.000000 0.000000
						}
					}
				}
				JOINT LeftShoulder
				{
					OFFSET 0.078845 0.121749 -0.034090
					CHANNELS 3 Zrotation Yrotation Xrotation
					JOINT LeftArm
					{
						OFFSET 0.090977 0.030469 -0.008868
						CHANNELS 3 Zrotation Yrotation Xrotation
						JOINT LeftForeArm
						{
							OFFSET 0.259612 -0.012772 -0.027456
							CHANNELS 3 Zrotation Yrotation Xrotation
							JOINT LeftHand
							{
								OFFSET 0.249234 0.008986 -0.001171
								CHANNELS 3 Zrotation Yrotation Xrotation
								End Site
								{
									OFFSET 0.000000 0.000000 0.000000
								}
							}
						}
					}
				}
				JOINT RightShoulder
				{
					OFFSET -0.081759 0.118833 -0.038615
					CHANNELS 3 Zrotation Yrotation Xrotation
					JOINT RightArm
					{
						OFFSET -0.096012 0.032551 -0.009143
						CHANNELS 3 Zrotation Yrotation Xrotation
						JOINT RightForeArm
						{
							OFFSET -0.253742 -0.013329 -0.021401
							CHANNELS 3 Zrotation Yrotation Xrotation
							JOINT RightHand
							{
								OFFSET -0.255298 0.007772 -0.005559
								CHANNELS 3 Zrotation Yrotation Xrotation
								End Site
								{
									OFFSET 0.000000 0.000000 0.000000
								}
							}
						}
					}
				}
			}
		}
	}
}
MOTION
Frames: 18
Frame Time: 0.050000
0.000000 0.946952 0.000000 -0.404444 2.075717 -0.048282 -0.423594 0.402588 4.284724 1.432638 -0.051371 -2.144719 -3.178374 -2.613596 7.262590 0.000000 0.000000 0.000000 -1.620188 0.582887 -6.430039 0.476339 0.158253 6.313805 2.159515 0.971435 8.552621 0.000000 0.000000 0.000000 2.639520 -0.279750 4.032475 -0.128402 0.009506 1.516967 -1.545183 0.791697 1.607886 4.566231 -2.166210 -9.895036 0.000000 0.000000 0.000000 -27.127495 -2.719379 -1.972337 -43.021085 -4.736037 -2.986879 -10.402033 -23.452214 2.903566 0.000000 0.000000 0.000000 26.584831 -0.567223 -2.296947 46.318055 4.176303 -2.903156 4.737673 23.413828 1.728135 0.000000 0.000000 0.000000 
-0.002408 0.946232 0.005045 -0.342773 1.280231 0.567558 -0.235820 0.412884 4.456145 1.099937 0.009450 -2.909260 -2.846726 -2.058286 7.303227 0.000000 0.000000 0.000000 -1.673046 0.657479 -7.274400 0.718223 0.147090 7.031955 2.359304 1.547266 8.041334 0.000000 0.000000 0.000000 2.712440 -0.242520 3.329389 -0.687589 0.264197 2.551287 -1.205381 0.911429 0.653439 3.985185 -1.778642 -9.917487 0.000000 0.000000 0.000000 -27.410850 -2.011985 -2.351988 -43.168129 -4.429359 -3.055145 -10.235651 -23.925945 2.936131 0.000000 0.000000 0.000000 26.356962 -0.642976 -2.492636 47.046672 3.654331 -2.998365 4.666240 24.465144 1.777583 0.000000 0.000000 0.000000 
-0.006360 0.945979 0.010143 0.034511 1.317306 0.946285 -0.247024 0.370631 3.981463 0.867212 0.000172 -2.220684 -2.845680 -2.070809 7.274806 0.000000 0.000000 0.000000 -1.328498 0.744297 -8.095171 -0.126428 0.344228 8.396553 2.123390 1.386798 7.327690 0.000000 0.000000 0.000000 3.156906 -0.263320 3.317723 -0.792976 0.370244 0.363480 -1.378630 0.149265 2.409067 3.181668 -1.323712 -9.886606 0.000000 0.000000 0.000000 -26.881130 -1.876803 -2.038373 -43.665966 -4.636641 -3.251929 -10.461569 -22.710403 2.874775 0.000000 0.000000 0.000000 27.383282 -0.563474 -2.731848 45.711623 3.317365 -3.131947 4.694440 25.006710 1.811943 0.000000 0.000000 0.000000 
-0.012446 0.946459 0.015833 0.110762 1.223626 1.423064 0.056437 0.349727 3.916580 0.889521 0.005064 -2.385667 -2.874152 -1.957857 7.636692 0.000000 0.000000 0.000000 -1.082627 0.802553 -8.595507 0.021160 0.340097 8.985691 2.090341 1.410385 7.114160 0.000000 0.000000 0.000000 3.054810 -0.272710 3.441314 -0.829306 0.376625 0.808273 -0.846156 -0.384529 1.499741 2.791116 -1.207034 -8.866933 0.000000 0.000000 0.000000 -27.346724 -0.856241 -2.510451 -43.361711 -4.725212 -3.192974 -10.073677 -22.345749 2.772861 0.000000 0.000000 0.000000 27.068707 -0.855034 -3.177439 45.659228 3.065742 -3.052356 5.216847 25.515826 1.915202 0.000000 0.000000 0.000000 
-0.020559 0.946793 0.021883 0.087638 1.089703 1.636676 0.437936 0.329120 3.902138 1.191672 -0.034598 -2.083095 -2.816190 -1.766454 7.842043 0.000000 0.000000 0.000000 -0.247466 0.855770 -8.696211 -0.433523 0.445345 9.421019 2.046805 1.466055 6.779909 0.000000 0.000000 0.000000 3.403086 -0.318646 3.837824 -0.341454 0.152135 0.363833 -1.257214 -0.532319 1.448598 3.027013 -1.411930 -8.515442 0.000000 0.000000 0.000000 -27.019354 -0.955590 -2.370757 -43.322400 -4.583910 -3.243585 -10.369765 -21.724836 2.753793 0.000000 0.000000 0.000000 26.747842 -1.324946 -3.478655 45.800061 3.334042 -2.941481 5.788770 26.431415 2.108022 0.000000 0.000000 0.000000 
-0.030350 0.946235 0.028534 0.017371 0.945894 2.092921 1.037097 0.255977 3.390416 1.376859 -0.087977 -1.287401 -2.649476 -1.530354 7.733282 0.000000 0.000000 0.000000 0.524131 0.925834 -8.992644 -0.494986 0.474928 9.801766 1.964911 1.545642 6.230098 0.000000 0.000000 0.000000 3.720337 -0.375629 4.317875 -0.295776 0.146035 -0.213812 -1.183532 -0.776842 1.291407 2.807126 -1.244413 -8.833200 0.000000 0.000000 0.000000 -26.803991 -0.684500 -2.401145 -43.450906 -4.254357 -3.382591 -9.699868 -21.694833 2.635344 0.000000 0.000000 0.000000 26.305981 -1.660886 -3.755609 46.317938 3.384379 -2.899115 5.838461 26.555838 2.109290 0.000000 0.000000 0.000000 
-0.040914 0.945125 0.036027 0.077728 0.454148 2.375081 1.386782 0.205310 2.937535 1.731591 -0.183975 -0.063364 -2.276236 -1.001818 7.505085 0.000000 0.000000 0.000000 1.372466 0.983163 -9.118204 -0.878745 0.579095 10.294093 1.961344 1.919740 5.399459 0.000000 0.000000 0.000000 4.026554 -0.438327 4.879658 -0.425679 0.216707 -0.597069 -1.544507 -0.685968 1.447558 3.016923 -1.357505 -9.160909 0.000000 0.000000 0.000000 -26.505266 -0.501877 -2.446939 -43.598670 -4.073004 -3.473347 -9.105895 -22.000407 2.564787 0.000000 0.000000 0.000000 26.143991 -1.796537 -3.839634 46.920588 3.458101 -2.911640 5.753859 27.292402 2.153461 0.000000 0.000000 0.000000 
-0.051288 0.943787 0.044300 0.125164 -0.218847 2.139476 1.894563 0.138308 2.274543 1.730907 -0.344208 3.140305 -1.709667 -0.607899 6.175736 0.000000 0.000000 0.000000 2.098679 0.969511 -8.683927 -1.057619 0.654253 10.892124 2.029892 2.511926 4.494185 0.000000 0.000000 0.000000 4.420923 -0.561264 6.196162 -0.670861 0.348451 -1.491556 -1.493438 -0.445286 1.810681 3.111025 -1.377357 -9.702652 0.000000 0.000000 0.000000 -26.678109 -0.434612 -2.448893 -43.305747 -3.896850 -3.555034 -8.939904 -22.951360 2.656137 0.000000 0.000000 0.000000 26.085505 -2.189975 -4.104387 46.911865 3.595184 -2.882618 5.963102 27.593090 2.223975 0.000000 0.000000 0.000000 
-0.060651 0.942436 0.053018 0.120691 -0.301872 2.089481 2.448335 -0.044894 -0.056754 1.774553 -0.643084 9.019883 -1.402064 -0.750289 4.570712 0.000000 0.000000 0.000000 2.698143 0.906201 -7.943529 -0.995249 0.634385 10.722350 1.915825 2.683610 3.699761 0.000000 0.000000 0.000000 4.829117 -0.665070 7.115583 -0.527893 0.286818 -1.711052 -1.724243 -0.248050 2.240191 3.269265 -1.365172 -10.720394 0.000000 0.000000 0.000000 -26.468669 -0.413979 -2.490052 -43.973022 -4.551710 -3.400906 -8.319455 -23.503291 2.592071 0.000000 0.000000 0.000000 25.876670 -2.036092 -3.894782 46.962502 4.074725 -2.767769 4.831605 27.544853 1.983644 0.000000 0.000000 0.000000 
-0.068447 0.941439 0.062175 0.258506 -0.111619 1.898148 2.972423 -0.304219 -3.911841 1.335308 -0.985322 18.030729 -1.325232 -1.048814 3.580168 0.000000 0.000000 0.000000 2.616779 0.742070 -6.626275 -0.175847 0.430346 9.862228 1.807564 2.773625 3.104527 0.000000 0.000000 0.000000 5.153792 -0.793524 8.348185 -0.374521 0.226344 -2.095543 -1.917623 -0.035415 2.479310 3.498435 -1.463037 -10.999244 0.000000 0.000000 0.000000 -26.419154 -0.033374 -2.831959 -44.266765 -5.265415 -3.160549 -8.144308 -23.731747 2.569097 0.000000 0.000000 0.000000 24.432541 -1.920047 -3.503075 47.714358 4.757660 -2.609077 3.672412 26.707509 1.689450 0.000000 0.000000 0.000000 
-0.074575 0.940547 0.071953 0.116202 -1.361424 2.120056 3.075109 -0.587228 -8.475466 0.641057 -1.067753 27.219989 0.096612 1.949842 4.171789 0.000000 0.000000 0.000000 2.793954 0.715653 -6.432907 0.300332 0.367274 10.124695 2.234149 3.969950 2.729028 0.000000 0.000000 0.000000 6.155587 -0.931178 8.923735 -1.034972 0.527611 -2.894244 -1.590491 0.839899 3.477467 3.228130 -1.158090 -12.200157 0.000000 0.000000 0.000000 -27.506103 0.331955 -3.201260 -43.693745 -5.126993 -3.236647 -8.176117 -25.047329 2.731564 0.000000 0.000000 0.000000 23.672573 -2.119704 -3.445164 46.784768 5.218009 -2.495356 4.713643 26.036358 1.883266 0.000000 0.000000 0.000000 
-0.079202 0.939520 0.082853 0.259219 -1.033180 1.578346 2.115526 -0.967369 -13.004466 0.273098 -1.294557 36.761331 1.567006 5.022868 4.808636 0.000000 0.000000 0.000000 3.273514 0.659556 -5.853785 -0.185387 0.518703 11.500860 1.904869 3.640922 1.977334 0.000000 0.000000 0.000000 5.993363 -1.079870 10.800923 -0.536223 0.282815 -1.463656 -1.190457 2.038391 1.260524 2.398041 -0.333979 -13.677025 0.000000 0.000000 0.000000 -28.493357 0.022427 -3.733694 -43.309016 -5.502869 -2.736852 -10.246542 -26.488837 3.273254 0.000000 0.000000 0.000000 23.245097 -2.929808 -3.537123 45.418628 5.142067 -2.380366 6.294117 25.176190 2.182033 0.000000 0.000000 0.000000 
-0.082878 0.938649 0.095184 -0.216754 -1.234950 1.046892 2.275481 -1.293039 -18.049017 -1.083444 -0.867432 47.939755 2.835068 6.947690 3.150936 0.000000 0.000000 0.000000 4.199957 0.490945 -4.436613 -0.524859 0.591092 11.480161 1.941120 3.928415 1.649081 0.000000 0.000000 0.000000 7.251561 -1.343121 12.191517 -1.132935 0.561398 -1.699528 -0.224598 2.301321 1.586917 2.235497 -0.221991 -13.886410 0.000000 0.000000 0.000000 -29.521701 -0.100408 -3.770031 -42.701035 -5.548654 -2.711453 -10.779596 -27.142020 3.493699 0.000000 0.000000 0.000000 21.572505 -2.254114 -2.958096 44.854928 4.416881 -2.625942 6.801654 26.184585 2.387202 0.000000 0.000000 0.000000 
-0.086226 0.938264 0.109281 -0.154804 -1.567443 0.980665 2.700867 -1.555006 -23.325033 -3.222456 0.510500 54.102762 3.208215 7.285164 1.782709 0.000000 0.000000 0.000000 4.376052 0.297403 -3.038577 -0.717319 0.599086 10.755977 2.065680 4.409768 1.367766 0.000000 0.000000 0.000000 7.552652 -1.436243 12.814618 -0.669936 0.345319 -1.626433 -1.118448 3.209645 1.752352 3.338979 -0.899342 -13.219319 0.000000 0.000000 0.000000 -29.921139 -1.162135 -3.516458 -42.194917 -5.324700 -2.642555 -10.718648 -28.009079 3.538168 0.000000 0.000000 0.000000 24.003877 -2.485899 -3.063192 42.781402 5.188148 -2.398637 5.627043 26.330549 2.202789 0.000000 0.000000 0.000000 
-0.089052 0.938499 0.126066 0.627721 -3.763675 1.348512 2.541367 -1.657397 -26.608878 -5.286788 2.497208 52.526246 3.224496 6.587992 -0.677902 0.000000 0.000000 0.000000 3.735233 0.184001 -2.328147 -1.474781 0.761835 10.512008 2.794571 6.419190 1.041161 0.000000 0.000000 0.000000 6.465770 -1.233261 12.421957 -1.432909 0.686688 -2.283284 -0.688658 4.930365 2.457646 3.560800 -1.279885 -11.036474 0.000000 0.000000 0.000000 -28.772470 -1.120945 -3.527711 -42.876691 -4.415726 -3.007150 -11.656208 -28.764678 3.852023 0.000000 0.000000 0.000000 23.382153 -2.668109 -2.936229 43.688339 5.207961 -2.527333 5.688501 25.953170 2.217743 0.000000 0.000000 0.000000 
-0.091333 0.939625 0.145997 1.220277 -4.435892 1.063696 2.356977 -1.729478 -28.028985 -6.053969 2.721146 45.721858 2.548057 5.714329 1.156653 0.000000 0.000000 0.000000 3.131043 0.010820 -0.913694 -1.701884 0.824567 10.673334 3.163885 7.095278 1.351631 0.000000 0.000000 0.000000 5.349486 -1.126296 12.990713 -1.628966 0.771231 -2.457504 -0.018987 5.151812 3.012578 2.926889 -0.798263 -11.799569 0.000000 0.000000 0.000000 -29.037488 -0.914091 -3.564513 -42.846036 -4.119448 -3.183918 -11.584308 -29.223164 3.925289 0.000000 0.000000 0.000000 23.090390 -2.207809 -2.705796 44.343479 6.080870 -2.270359 4.996129 25.301898 1.998957 0.000000 0.000000 0.000000 
-0.092744 0.940384 0.169117 1.481832 -4.645679 1.301097 2.017299 -1.832955 -28.705636 -5.150945 1.727502 35.777515 1.944099 4.860643 2.419427 0.000000 0.000000 0.000000 2.824884 -0.181576 0.710185 -1.759397 0.801428 10.146569 3.210129 7.151052 1.410373 0.000000 0.000000 0.000000 4.419743 -1.027928 13.228420 -1.106943 0.532723 -2.267277 0.118682 5.465430 2.653341 2.200321 -0.295605 -11.928085 0.000000 0.000000 0.000000 -29.508237 0.089323 -4.366369 -42.389252 -3.432481 -3.320586 -12.836667 -28.775856 4.168209 0.000000 0.000000 0.000000 23.172982 -1.792107 -2.423503 44.371687 6.178933 -2.222229 5.046219 25.175298 2.002746 0.000000 0.000000 0.000000 
-0.093095 0.939139 0.195263 1.167057 -5.925321 1.806629 1.990108 -1.723158 -28.264377 -3.631019 0.728192 21.336685 0.536026 3.747182 7.974624 0.000000 0.000000 0.000000 2.882926 -0.367738 2.187011 -1.934167 0.816281 9.744948 3.514177 8.082621 1.142415 0.000000 0.000000 0.000000 4.256187 -0.960460 12.669753 -1.459874 0.689429 -1.428162 0.287461 6.503041 1.924282 2.190014 -0.256102 -11.913733 0.000000 0.000000 0.000000 -29.437952 0.165409 -4.587951 -42.413207 -2.524540 -3.514396 -12.957219 -28.761926 4.160129 0.000000 0.000000 0.000000 22.995141 -1.472671 -2.123380 45.306284 6.784885 -2.001611 5.016260 25.274869 2.022209 0.000000 0.000000 0.000000 
